<svg width="15" height="16" viewBox="0 0 15 16" fill="none" xmlns="http://www.w3.org/2000/svg">
<path fill-rule="evenodd" clip-rule="evenodd" d="M4.7708 0.750007H9.92372C9.97724 0.750007 10.0304 0.753429 10.0833 0.760274C12.1808 0.906957 13.8096 2.64765 13.8167 4.75027V10.7507C13.8089 12.9646 12.0098 14.7541 9.79586 14.75H4.7708C2.55647 14.7541 0.757206 12.964 0.75 10.7497V4.75027C0.757206 2.53596 2.55647 0.745876 4.7708 0.750007Z" stroke="#808080" stroke-width="1.5" stroke-linecap="round" stroke-linejoin="round"/>
<path d="M13.8169 5.49976C14.2312 5.49976 14.5669 5.16398 14.5669 4.74976C14.5669 4.33555 14.2312 3.99976 13.8169 3.99976V5.49976ZM10.0836 4.74976H9.33362C9.33362 5.16398 9.66941 5.49976 10.0836 5.49976V4.74976ZM10.8336 0.759766C10.8336 0.345552 10.4978 0.00976562 10.0836 0.00976562C9.66941 0.00976562 9.33362 0.345552 9.33362 0.759766H10.8336ZM9.15029 8.96549C9.5645 8.96549 9.90029 8.6297 9.90029 8.21549C9.90029 7.80127 9.5645 7.46549 9.15029 7.46549V8.96549ZM3.55029 7.46549C3.13608 7.46549 2.80029 7.80127 2.80029 8.21549C2.80029 8.6297 3.13608 8.96549 3.55029 8.96549V7.46549ZM6.35029 6.16588C6.7645 6.16588 7.10029 5.8301 7.10029 5.41588C7.10029 5.00167 6.7645 4.66588 6.35029 4.66588V6.16588ZM3.55029 4.66588C3.13608 4.66588 2.80029 5.00167 2.80029 5.41588C2.80029 5.8301 3.13608 6.16588 3.55029 6.16588V4.66588ZM10.0836 11.7655C10.4978 11.7655 10.8336 11.4297 10.8336 11.0155C10.8336 10.6013 10.4978 10.2655 10.0836 10.2655V11.7655ZM3.55029 10.2655C3.13608 10.2655 2.80029 10.6013 2.80029 11.0155C2.80029 11.4297 3.13608 11.7655 3.55029 11.7655V10.2655ZM13.8169 3.99976H10.0836V5.49976H13.8169V3.99976ZM10.8336 4.74976V0.759766H9.33362V4.74976H10.8336ZM9.15029 7.46549H3.55029V8.96549H9.15029V7.46549ZM6.35029 4.66588H3.55029V6.16588H6.35029V4.66588ZM10.0836 10.2655H3.55029V11.7655H10.0836V10.2655Z" fill="#808080"/>
</svg>
