<svg width="26" height="25" viewBox="0 0 26 25" fill="none" xmlns="http://www.w3.org/2000/svg">
<path fill-rule="evenodd" clip-rule="evenodd" d="M19.5076 20.6805V6.28574C19.5125 5.72851 19.287 5.19222 18.8807 4.79487C18.4744 4.39753 17.9205 4.17167 17.341 4.16699H8.6743C8.09478 4.17167 7.54092 4.39753 7.13459 4.79487C6.72825 5.19222 6.50273 5.72851 6.50764 6.28574V20.6805C6.45613 21.0962 6.66836 21.5011 7.04645 21.7085C7.42453 21.916 7.89504 21.8857 8.24097 21.6316L12.3576 18.2139C12.7287 17.8918 13.293 17.8918 13.6641 18.2139L17.7743 21.6326C18.1204 21.8869 18.5912 21.9172 18.9694 21.7094C19.3476 21.5017 19.5596 21.0963 19.5076 20.6805Z" stroke="#7E7E7E" stroke-width="1.5" stroke-linecap="round" stroke-linejoin="round"/>
</svg>
