<svg width="17" height="14" viewBox="0 0 17 14" fill="none" xmlns="http://www.w3.org/2000/svg">
<path d="M4.22727 4.86846C4.22727 4.45425 3.89149 4.11846 3.47727 4.11846C3.06306 4.11846 2.72727 4.45425 2.72727 4.86846H4.22727ZM3.47727 10.0228H2.72726L2.72729 10.0276L3.47727 10.0228ZM6.20455 12.75L6.19979 13.5H6.20455V12.75ZM10.5682 12.75V13.5L10.5729 13.5L10.5682 12.75ZM13.2955 10.0228L14.0455 10.0276V10.0228H13.2955ZM14.0455 4.86846C14.0455 4.45425 13.7097 4.11846 13.2955 4.11846C12.8812 4.11846 12.5455 4.45425 12.5455 4.86846H14.0455ZM3.20042 5.56507C3.58538 5.71797 4.0214 5.52985 4.1743 5.14489C4.32721 4.75993 4.13908 4.3239 3.75412 4.171L3.20042 5.56507ZM0.75 3.7848L0.473011 3.08782C0.187422 3.20132 -3.03388e-05 3.47756 0 3.78488C3.03388e-05 4.09219 0.187537 4.36839 0.473149 4.48183L0.75 3.7848ZM8.38636 0.75L8.66335 0.0530228C8.48546 -0.0176743 8.28727 -0.0176743 8.10938 0.0530228L8.38636 0.75ZM16.0227 3.7848L16.2998 4.48174C16.5853 4.36822 16.7728 4.09201 16.7727 3.78475C16.7727 3.47748 16.5853 3.2013 16.2997 3.08782L16.0227 3.7848ZM13.0184 4.17219C12.6335 4.32522 12.4455 4.76131 12.5985 5.14622C12.7516 5.53113 13.1876 5.7191 13.5725 5.56606L13.0184 4.17219ZM3.7542 4.17146C3.36926 4.01852 2.93322 4.20659 2.78027 4.59153C2.62733 4.97647 2.8154 5.41252 3.20034 5.56546L3.7542 4.17146ZM8.38636 6.81894L8.10943 7.51594C8.28729 7.5866 8.48544 7.5866 8.6633 7.51594L8.38636 6.81894ZM13.5724 5.56546C13.9573 5.41252 14.1454 4.97647 13.9925 4.59153C13.8395 4.20659 13.4035 4.01852 13.0185 4.17146L13.5724 5.56546ZM2.72727 4.86846V10.0228H4.22727V4.86846H2.72727ZM2.72729 10.0276C2.73941 11.9403 4.28705 13.4879 6.19979 13.5L6.2093 12C5.1175 11.9931 4.23418 11.1098 4.22726 10.0181L2.72729 10.0276ZM6.20455 13.5H10.5682V12H6.20455V13.5ZM10.5729 13.5C12.4857 13.4879 14.0333 11.9403 14.0454 10.0276L12.5455 10.0181C12.5385 11.1098 11.6552 11.9931 10.5634 12L10.5729 13.5ZM14.0455 10.0228V4.86846H12.5455V10.0228H14.0455ZM3.75412 4.171L1.02685 3.08777L0.473149 4.48183L3.20042 5.56507L3.75412 4.171ZM1.02699 4.48178L8.66335 1.44698L8.10938 0.0530228L0.473011 3.08782L1.02699 4.48178ZM8.10938 1.44698L15.7457 4.48178L16.2997 3.08782L8.66335 0.0530228L8.10938 1.44698ZM15.7456 3.08786L13.0184 4.17219L13.5725 5.56606L16.2998 4.48174L15.7456 3.08786ZM3.20034 5.56546L8.10943 7.51594L8.6633 6.12194L3.7542 4.17146L3.20034 5.56546ZM8.6633 7.51594L13.5724 5.56546L13.0185 4.17146L8.10943 6.12194L8.6633 7.51594Z" fill="#808080"/>
</svg>
