<svg width="20" height="21" viewBox="0 0 20 21" fill="none" xmlns="http://www.w3.org/2000/svg">
<path fill-rule="evenodd" clip-rule="evenodd" d="M16.5 1.40948L18.4575 2.96823C18.6465 3.14614 18.7531 3.39464 18.7517 3.65424C18.7503 3.91383 18.641 4.16115 18.45 4.33698L16.9625 6.11698L11.9013 12.1532C11.8127 12.2546 11.6947 12.3259 11.5638 12.357L8.93875 12.952C8.59436 12.9692 8.29455 12.7189 8.25 12.377V9.67948C8.25893 9.54943 8.31132 9.42617 8.39875 9.32948L13.3662 3.71323L15.0713 1.67698C15.4086 1.23483 16.0256 1.11931 16.5 1.40948Z" stroke="#7E7E7E" stroke-width="1.5" stroke-linecap="round" stroke-linejoin="round"/>
<path d="M9.41626 4.33594C9.83047 4.33594 10.1663 4.00015 10.1663 3.58594C10.1663 3.17172 9.83047 2.83594 9.41626 2.83594V4.33594ZM5.91626 3.58594V2.83594L5.91446 2.83594L5.91626 3.58594ZM1.25001 8.27344H2.00001L2.00001 8.27183L1.25001 8.27344ZM1.25001 15.3047L2.00001 15.3063V15.3047H1.25001ZM5.91626 19.9922L5.91446 20.7422H5.91626V19.9922ZM12.9163 19.9922V20.7422L12.9181 20.7422L12.9163 19.9922ZM17.5825 15.3047H16.8325L16.8325 15.3063L17.5825 15.3047ZM18.3325 10.6172C18.3325 10.203 17.9967 9.86719 17.5825 9.86719C17.1683 9.86719 16.8325 10.203 16.8325 10.6172H18.3325ZM14.0595 3.42725C13.9015 3.04438 13.4629 2.86213 13.0801 3.02019C12.6972 3.17824 12.515 3.61675 12.673 3.99963L14.0595 3.42725ZM17.1244 6.84451C17.5288 6.7551 17.7842 6.35475 17.6948 5.9503C17.6054 5.54585 17.2051 5.29046 16.8006 5.37987L17.1244 6.84451ZM4.75001 15.7272C4.3358 15.7272 4.00001 16.063 4.00001 16.4772C4.00001 16.8914 4.3358 17.2272 4.75001 17.2272V15.7272ZM14.0838 17.2272C14.498 17.2272 14.8338 16.8914 14.8338 16.4772C14.8338 16.063 14.498 15.7272 14.0838 15.7272V17.2272ZM9.41626 3.58594V2.83594H5.91626V3.58594V4.33594H9.41626V3.58594ZM5.91626 3.58594L5.91446 2.83594C2.9175 2.84314 0.493597 5.27808 0.500013 8.27504L1.25001 8.27344L2.00001 8.27183C1.99537 6.10314 3.74937 4.34115 5.91806 4.33594L5.91626 3.58594ZM1.25001 8.27344H0.500011V15.3047H1.25001H2.00001V8.27344H1.25001ZM1.25001 15.3047L0.500013 15.3031C0.493597 18.3 2.9175 20.735 5.91446 20.7422L5.91626 19.9922L5.91806 19.2422C3.74937 19.237 1.99537 17.475 2.00001 15.3063L1.25001 15.3047ZM5.91626 19.9922V20.7422H12.9163V19.9922V19.2422H5.91626V19.9922ZM12.9163 19.9922L12.9181 20.7422C15.915 20.735 18.3389 18.3 18.3325 15.3031L17.5825 15.3047L16.8325 15.3063C16.8372 17.475 15.0831 19.237 12.9145 19.2422L12.9163 19.9922ZM17.5825 15.3047H18.3325V10.6172H17.5825H16.8325V15.3047H17.5825ZM13.3663 3.71344L12.673 3.99963C12.9082 4.56926 13.3901 5.3795 14.1063 6.00268C14.8361 6.63771 15.8693 7.12197 17.1244 6.84451L16.9625 6.11219L16.8006 5.37987C16.1445 5.52491 15.5808 5.29729 15.0909 4.87107C14.5874 4.433 14.2269 3.83262 14.0595 3.42725L13.3663 3.71344ZM4.75001 16.4772V17.2272H14.0838V16.4772V15.7272H4.75001V16.4772Z" fill="#7E7E7E"/>
</svg>
