<svg width="22" height="22" viewBox="0 0 22 22" fill="none" xmlns="http://www.w3.org/2000/svg">
<path d="M15.9576 13.2183C15.6639 13.5105 15.6628 13.9854 15.9549 14.279C16.2471 14.5726 16.722 14.5738 17.0156 14.2817L15.9576 13.2183ZM19.7793 11.5317C20.073 11.2395 20.0741 10.7646 19.782 10.471C19.4898 10.1774 19.0149 10.1762 18.7213 10.4684L19.7793 11.5317ZM18.7213 11.5317C19.0149 11.8238 19.4898 11.8226 19.782 11.529C20.0741 11.2354 20.073 10.7605 19.7793 10.4684L18.7213 11.5317ZM17.0156 7.71835C16.722 7.42619 16.2471 7.42737 15.9549 7.72099C15.6628 8.01462 15.6639 8.48949 15.9576 8.78165L17.0156 7.71835ZM19.2503 11.75C19.6645 11.75 20.0003 11.4142 20.0003 11C20.0003 10.5858 19.6645 10.25 19.2503 10.25L19.2503 11.75ZM6.41699 10.25C6.00278 10.25 5.66699 10.5858 5.66699 11C5.66699 11.4142 6.00278 11.75 6.41699 11.75L6.41699 10.25ZM16.4866 13.75L17.0156 14.2817L19.7793 11.5317L19.2503 11L18.7213 10.4684L15.9576 13.2183L16.4866 13.75ZM19.2503 11L19.7793 10.4684L17.0156 7.71835L16.4866 8.25L15.9576 8.78165L18.7213 11.5317L19.2503 11ZM19.2503 11L19.2503 10.25L6.41699 10.25L6.41699 11L6.41699 11.75L19.2503 11.75L19.2503 11Z" fill="#4F4F4F"/>
<path d="M13.75 8.25033C13.75 6.22528 12.1084 4.58366 10.0833 4.58366L6.41667 4.58366C4.39162 4.58366 2.75 6.22528 2.75 8.25033L2.75 13.7503C2.75 15.7754 4.39162 17.417 6.41667 17.417L10.0833 17.417C12.1084 17.417 13.75 15.7754 13.75 13.7503" stroke="#4F4F4F" stroke-width="1.5" stroke-linecap="round" stroke-linejoin="round"/>
</svg>
