<svg width="356" height="225" viewBox="0 0 356 225" fill="none" xmlns="http://www.w3.org/2000/svg">
<g filter="url(#filter0_d_16017_9856)">
<rect x="36" y="7.23242" width="267" height="209" rx="8" fill="white"/>
<rect x="36.75" y="7.98242" width="265.5" height="207.5" rx="7.25" stroke="#EFF1F3" stroke-width="1.5"/>
</g>
<rect x="67" y="30.2324" width="210" height="13" rx="6.5" fill="#DFE1E3"/>
<rect x="67" y="69.2324" width="129" height="6" rx="3" fill="#DFE1E3"/>
<rect x="67" y="79.2324" width="167" height="6" rx="3" fill="#DFE1E3"/>
<rect x="67" y="89.2324" width="111" height="6" rx="3" fill="#DFE1E3"/>
<rect x="67" y="99.2324" width="139" height="6" rx="3" fill="#DFE1E3"/>
<rect x="67" y="133" width="68" height="6" rx="3" fill="#DFE1E3"/>
<rect x="67" y="143" width="51" height="6" rx="3" fill="#DFE1E3"/>
<rect x="67" y="169" width="44" height="12" rx="4" fill="#B91879"/>
<path d="M310.538 0.000879976C310.092 -0.00648426 309.645 0.0800983 309.168 0.18197C308.405 0.345211 307.589 0.599421 306.773 0.866799C305.958 1.13363 305.154 1.40989 304.472 1.61528C303.789 1.82067 303.19 1.94295 302.998 1.94344C302.806 1.94336 302.218 1.82502 301.535 1.62085C300.852 1.41655 300.04 1.13991 299.224 0.874328C298.408 0.6089 297.584 0.346196 296.821 0.18398C296.058 0.0215808 295.379 -0.0994032 294.652 0.136849C293.925 0.372925 293.444 0.880282 292.923 1.45947C292.402 2.03865 291.879 2.72773 291.377 3.42189C290.874 4.11606 290.39 4.81458 289.959 5.38067C289.529 5.9467 289.112 6.38389 288.957 6.49662C288.8 6.60652 288.257 6.87681 287.583 7.10906C286.909 7.34159 286.093 7.58124 285.276 7.84455C284.459 8.1084 283.645 8.38864 282.932 8.70523C282.219 9.02143 281.603 9.32389 281.155 9.94269C280.706 10.5598 280.609 11.2468 280.529 12.0211C280.449 12.7953 280.439 13.649 280.442 14.5053C280.444 15.3615 280.459 16.2137 280.443 16.9243C280.429 17.635 280.355 18.2409 280.296 18.4229C280.237 18.6047 279.944 19.1211 279.539 19.7057C279.133 20.2901 278.616 20.9778 278.111 21.6699C277.605 22.362 277.106 23.0617 276.715 23.7356C276.325 24.4095 275.999 25.0278 276 25.7904C276.001 26.553 276.327 27.1629 276.719 27.8361C277.11 28.5094 277.608 29.2051 278.114 29.8964C278.621 30.5877 279.136 31.2678 279.543 31.8515C279.949 32.4353 280.244 32.9598 280.303 33.1417C280.362 33.3239 280.443 33.926 280.459 34.6366C280.477 35.3472 280.46 36.1993 280.459 37.0556C280.458 37.9119 280.463 38.7676 280.545 39.5417C280.626 40.3157 280.719 40.9998 281.169 41.6164C281.619 42.233 282.25 42.5408 282.963 42.8558C283.677 43.1709 284.489 43.4433 285.307 43.7056C286.124 43.9678 286.944 44.2184 287.617 44.4522C288.29 44.6863 288.836 44.9378 288.991 45.0501C289.146 45.1627 289.56 45.6028 289.992 46.1681C290.424 46.7336 290.916 47.4281 291.42 48.1215C291.924 48.8148 292.439 49.5143 292.961 50.0929C293.483 50.6716 293.964 51.1643 294.692 51.3994C295.419 51.6343 296.107 51.5121 296.869 51.3486C297.632 51.1854 298.45 50.931 299.266 50.6637C300.081 50.3968 300.883 50.1207 301.565 49.9153C302.248 49.7099 302.85 49.5881 303.041 49.5876C303.233 49.5877 303.82 49.7061 304.502 49.9101C305.185 50.1145 305.997 50.3911 306.813 50.6566C307.629 50.9221 308.45 51.1739 309.213 51.3362C309.976 51.4986 310.655 51.6195 311.382 51.3833C312.109 51.1472 312.595 50.6528 313.116 50.0731C313.636 49.4934 314.154 48.7922 314.657 48.098C315.159 47.4039 315.647 46.7181 316.078 46.152C316.509 45.5859 316.922 45.1356 317.077 45.0231C317.233 44.9131 317.782 44.6553 318.456 44.4228C319.129 44.1902 319.939 43.9383 320.755 43.6744C321.572 43.4106 322.386 43.1323 323.099 42.8157C323.812 42.4995 324.435 42.2078 324.882 41.5873C325.331 40.9702 325.428 40.2831 325.508 39.5089C325.588 38.7347 325.593 37.8701 325.59 37.0138C325.588 36.1576 325.576 35.3054 325.59 34.5948C325.604 33.8842 325.682 33.2891 325.741 33.1071C325.8 32.9253 326.089 32.3978 326.494 31.8134C326.9 31.229 327.421 30.554 327.926 29.8618C328.432 29.1698 328.926 28.4574 329.316 27.7835C329.707 27.1096 330.038 26.504 330.037 25.7413C330.036 24.9787 329.71 24.367 329.318 23.6938C328.927 23.0206 328.424 22.314 327.917 21.6227C327.411 20.9314 326.897 20.2531 326.491 19.6694C326.084 19.0856 325.788 18.5593 325.728 18.3775C325.669 18.1958 325.595 17.604 325.579 16.8934C325.561 16.1827 325.576 15.3306 325.577 14.4744C325.578 13.6181 325.57 12.7515 325.488 11.9774C325.407 11.2034 325.312 10.5193 324.862 9.90273C324.412 9.28617 323.787 8.98919 323.074 8.67416C322.36 8.35908 321.544 8.07575 320.727 7.81347C319.909 7.55123 319.092 7.31165 318.419 7.07778C317.746 6.84364 317.196 6.58309 317.04 6.4708C316.885 6.35824 316.471 5.91641 316.04 5.35099C315.608 4.78557 315.115 4.091 314.611 3.39765C314.108 2.70431 313.599 2.01753 313.077 1.43886C312.556 0.860227 312.073 0.367455 311.345 0.132416C311.073 0.044466 310.806 0.00550893 310.538 0.000879976ZM310.649 1.87626C310.716 1.87976 310.759 1.88117 310.774 1.88748C310.834 1.90782 311.263 2.20312 311.699 2.68655C312.135 3.16994 312.619 3.81317 313.111 4.48949C313.602 5.16579 314.09 5.87648 314.557 6.48816C315.024 7.09985 315.438 7.611 315.953 7.98306C316.467 8.35518 317.077 8.57443 317.805 8.82746C318.533 9.08026 319.351 9.3308 320.148 9.58666C320.946 9.84234 321.721 10.1063 322.317 10.3694C322.913 10.6325 323.314 10.9496 323.351 11C323.388 11.0509 323.57 11.5275 323.638 12.1742C323.706 12.8208 323.721 13.642 323.72 14.4773C323.719 15.3125 323.706 16.1638 323.724 16.9325C323.741 17.7013 323.762 18.3558 323.958 18.9583C324.155 19.5608 324.523 20.1008 324.963 20.7323C325.402 21.3638 325.917 22.0566 326.411 22.7309C326.905 23.4052 327.379 24.0639 327.706 24.6263C328.033 25.1886 328.169 25.6853 328.168 25.748C328.168 25.8087 328.031 26.2979 327.704 26.8605C327.378 27.4236 326.911 28.0862 326.418 28.7613C325.925 29.4364 325.407 30.1277 324.968 30.7599C324.529 31.3921 324.165 31.9309 323.969 32.5339C323.773 33.1366 323.745 33.7909 323.729 34.5597C323.711 35.3285 323.736 36.1905 323.739 37.0258C323.742 37.8611 323.725 38.6767 323.659 39.3234C323.593 39.9703 323.418 40.4471 323.381 40.4976C323.344 40.5477 322.941 40.8656 322.346 41.13C321.75 41.3942 320.975 41.6532 320.179 41.9108C319.382 42.1679 318.561 42.4249 317.833 42.6794C317.106 42.9333 316.489 43.1598 315.976 43.5331C315.462 43.9058 315.056 44.4192 314.589 45.0316C314.123 45.6442 313.64 46.3495 313.15 47.0266C312.66 47.7038 312.168 48.3545 311.733 48.8386C311.297 49.3224 310.875 49.5965 310.816 49.6162C310.757 49.6359 310.24 49.6607 309.602 49.5257C308.965 49.3902 308.18 49.156 307.384 48.8969C306.588 48.6381 305.779 48.3586 305.041 48.1377C304.302 47.9165 303.68 47.7385 303.045 47.7391C302.41 47.7398 301.77 47.9118 301.032 48.134C300.294 48.3562 299.485 48.6419 298.689 48.9025C297.893 49.163 297.104 49.3977 296.467 49.5346C295.83 49.6709 295.321 49.6573 295.261 49.6381C295.201 49.6177 294.778 49.3348 294.342 48.8517C293.906 48.3683 293.416 47.7124 292.925 47.036C292.433 46.3598 291.951 45.6618 291.484 45.0501C291.017 44.4384 290.603 43.9254 290.088 43.5534C289.574 43.1812 288.959 42.9512 288.231 42.6981C287.503 42.4453 286.686 42.1966 285.889 41.9407C285.092 41.685 284.314 41.4211 283.718 41.1579C283.122 40.8948 282.722 40.576 282.685 40.5256C282.648 40.4747 282.465 40 282.398 39.3532C282.33 38.7066 282.32 37.8962 282.321 37.061C282.322 36.2257 282.335 35.3728 282.318 34.604C282.3 33.8352 282.274 33.1698 282.077 32.5672C281.881 31.9647 281.513 31.4248 281.073 30.7933C280.633 30.1618 280.124 29.4799 279.63 28.8056C279.136 28.1312 278.658 27.4635 278.331 26.9011C278.004 26.3388 277.872 25.8529 277.873 25.7903C277.873 25.7296 278.01 25.239 278.337 24.676C278.663 24.1129 279.125 23.4413 279.618 22.7661C280.111 22.091 280.634 21.4088 281.073 20.7766C281.512 20.1444 281.873 19.5965 282.068 18.9935C282.264 18.3908 282.292 17.7365 282.309 16.9677C282.326 16.1989 282.306 15.3459 282.302 14.5107C282.299 13.6755 282.316 12.8616 282.381 12.2149C282.448 11.568 282.623 11.0894 282.66 11.0389C282.697 10.9888 283.099 10.6708 283.695 10.4065C284.291 10.1423 285.06 9.87168 285.857 9.61465C286.653 9.3576 287.48 9.11299 288.207 8.85909C288.935 8.60463 289.541 8.38273 290.054 8.01002C290.568 7.63732 290.969 7.11434 291.435 6.50243C291.902 5.8898 292.403 5.18995 292.893 4.51285C293.383 3.83564 293.873 3.18313 294.308 2.69905C294.743 2.21468 295.162 1.93198 295.222 1.91287C295.281 1.89323 295.796 1.86655 296.434 2.00156C297.071 2.1371 297.85 2.38761 298.646 2.64663C299.442 2.9055 300.262 3.1795 301 3.40044C301.739 3.62161 302.361 3.79955 302.996 3.79904C303.632 3.79832 304.265 3.61525 305.003 3.39308C305.741 3.17093 306.557 2.89761 307.352 2.63763C308.148 2.37708 308.92 2.13431 309.558 1.99801C310.036 1.89565 310.448 1.87219 310.649 1.87626ZM303.02 10.9344C294.819 10.9345 288.154 17.5849 288.153 25.7602C288.153 33.9376 294.819 40.595 303.02 40.595C311.22 40.595 317.888 33.9368 317.889 25.7602C317.889 17.5828 311.22 10.9345 303.02 10.9344ZM303.02 12.7899C310.212 12.7899 316.024 18.5839 316.024 25.7602C316.024 32.9364 310.212 38.7395 303.02 38.7395C295.828 38.7395 290.016 32.9364 290.016 25.7602C290.016 18.584 295.828 12.7899 303.02 12.7899ZM309.89 20.3296C309.645 20.3306 309.409 20.428 309.236 20.6007L300.99 28.9431L296.801 24.703C296.716 24.6158 296.614 24.5463 296.501 24.4984C296.388 24.4506 296.267 24.4253 296.144 24.4242C296.022 24.423 295.9 24.4459 295.787 24.4916C295.673 24.5373 295.57 24.6048 295.482 24.6904C295.395 24.7757 295.325 24.8773 295.277 24.9895C295.228 25.1017 295.203 25.2223 295.202 25.3443C295.2 25.4664 295.223 25.5874 295.269 25.7007C295.315 25.8139 295.382 25.917 295.468 26.0041L300.33 30.9146C300.417 31.0023 300.52 31.072 300.634 31.1195C300.748 31.1671 300.87 31.1916 300.994 31.1915C301.118 31.1915 301.24 31.167 301.354 31.1194C301.468 31.0718 301.571 31.0021 301.658 30.9144L310.563 21.9033C310.734 21.7277 310.829 21.4914 310.827 21.2463C310.824 21.0011 310.724 20.767 310.549 20.595C310.373 20.4224 310.137 20.3287 309.89 20.3296Z" fill="#B91879"/>
<rect y="104" width="356" height="118" fill="url(#paint0_linear_16017_9856)"/>
<defs>
<filter id="filter0_d_16017_9856" x="32" y="7.23242" width="275" height="217" filterUnits="userSpaceOnUse" color-interpolation-filters="sRGB">
<feFlood flood-opacity="0" result="BackgroundImageFix"/>
<feColorMatrix in="SourceAlpha" type="matrix" values="0 0 0 0 0 0 0 0 0 0 0 0 0 0 0 0 0 0 127 0" result="hardAlpha"/>
<feOffset dy="4"/>
<feGaussianBlur stdDeviation="2"/>
<feComposite in2="hardAlpha" operator="out"/>
<feColorMatrix type="matrix" values="0 0 0 0 0 0 0 0 0 0 0 0 0 0 0 0 0 0 0.12 0"/>
<feBlend mode="normal" in2="BackgroundImageFix" result="effect1_dropShadow_16017_9856"/>
<feBlend mode="normal" in="SourceGraphic" in2="effect1_dropShadow_16017_9856" result="shape"/>
</filter>
<linearGradient id="paint0_linear_16017_9856" x1="136" y1="224.81" x2="136" y2="104" gradientUnits="userSpaceOnUse">
<stop stop-color="#F8FAFB"/>
<stop offset="1" stop-color="#F8FAFB" stop-opacity="0"/>
</linearGradient>
</defs>
</svg>
