<svg width="16" height="16" viewBox="0 0 16 16" fill="none" xmlns="http://www.w3.org/2000/svg">
<path fill-rule="evenodd" clip-rule="evenodd" d="M7.758 4.92516L10.919 7.07316C11.1238 7.19273 11.2497 7.41203 11.2497 7.64916C11.2497 7.88629 11.1238 8.10559 10.919 8.22516L7.758 10.5752C7.158 10.9822 6.25 10.6352 6.25 9.99916V5.49916C6.25 4.86616 7.159 4.51816 7.758 4.92516Z" stroke="#808080" stroke-width="1.5" stroke-linecap="round" stroke-linejoin="round"/>
<path fill-rule="evenodd" clip-rule="evenodd" d="M0.75 6.75V8.75C0.75 12.0637 3.43629 14.75 6.75 14.75H8.75C12.0637 14.75 14.75 12.0637 14.75 8.75V6.75C14.75 3.43629 12.0637 0.75 8.75 0.75H6.75C3.43629 0.75 0.75 3.43629 0.75 6.75Z" stroke="#808080" stroke-width="1.5" stroke-linecap="round" stroke-linejoin="round"/>
</svg>
