<svg width="22" height="22" viewBox="0 0 22 22" fill="none" xmlns="http://www.w3.org/2000/svg">
<path fill-rule="evenodd" clip-rule="evenodd" d="M4.58398 9.16667V14.6667C4.58398 16.6917 6.22561 18.3333 8.25065 18.3333H13.7507C15.7757 18.3333 17.4173 16.6917 17.4173 14.6667V9.16667C17.4173 7.14162 15.7757 5.5 13.7507 5.5H8.25065C6.22561 5.5 4.58398 7.14162 4.58398 9.16667Z" stroke="#808080" stroke-width="1.5" stroke-linecap="round" stroke-linejoin="round"/>
<path d="M13 6.41699C13 6.83121 13.3358 7.16699 13.75 7.16699C14.1642 7.16699 14.5 6.83121 14.5 6.41699H13ZM14.5 3.66699C14.5 3.25278 14.1642 2.91699 13.75 2.91699C13.3358 2.91699 13 3.25278 13 3.66699H14.5ZM7.5 6.41699C7.5 6.83121 7.83579 7.16699 8.25 7.16699C8.66421 7.16699 9 6.83121 9 6.41699H7.5ZM9 3.66699C9 3.25278 8.66421 2.91699 8.25 2.91699C7.83579 2.91699 7.5 3.25278 7.5 3.66699H9ZM7.5 10.3458C7.5 10.76 7.83579 11.0958 8.25 11.0958C8.66421 11.0958 9 10.76 9 10.3458H7.5ZM11 10.3458L11.7487 10.3904C11.7496 10.3756 11.75 10.3607 11.75 10.3458H11ZM10.4167 11.5205L10.9048 12.0899H10.9048L10.4167 11.5205ZM9.16667 11.917L9.09612 11.1703C8.71095 11.2067 8.41667 11.5301 8.41667 11.917C8.41667 12.3039 8.71095 12.6273 9.09611 12.6637L9.16667 11.917ZM10.4167 12.3135L10.9048 11.744L10.4167 12.3135ZM11 13.4882H11.75C11.75 13.4733 11.7496 13.4584 11.7487 13.4436L11 13.4882ZM9 13.4882C9 13.0739 8.66421 12.7382 8.25 12.7382C7.83579 12.7382 7.5 13.0739 7.5 13.4882H9ZM12.3453 9.38309C12.0308 9.65263 11.9943 10.1261 12.2639 10.4406C12.5334 10.7551 13.0069 10.7916 13.3214 10.5221L12.3453 9.38309ZM13.75 9.16699H14.5C14.5 8.87411 14.3295 8.60802 14.0634 8.48562C13.7973 8.36323 13.4843 8.40692 13.262 8.59751L13.75 9.16699ZM13 14.667C13 15.0812 13.3358 15.417 13.75 15.417C14.1642 15.417 14.5 15.0812 14.5 14.667H13ZM13.75 6.41699H14.5V3.66699H13.75H13V6.41699H13.75ZM8.25 6.41699H9V3.66699H8.25H7.5V6.41699H8.25ZM8.25 10.3458H9C9 10.2005 9.05169 10.1215 9.13417 10.0587C9.23751 9.97993 9.4127 9.91745 9.625 9.91745C9.8373 9.91745 10.0125 9.97993 10.1158 10.0587C10.1983 10.1215 10.25 10.2005 10.25 10.3458H11H11.75C11.75 9.70559 11.4579 9.19539 11.0248 8.86543C10.6125 8.55136 10.1002 8.41745 9.625 8.41745C9.1498 8.41745 8.63749 8.55136 8.2252 8.86543C7.79206 9.19539 7.5 9.70559 7.5 10.3458H8.25ZM11 10.3458L10.2513 10.3012C10.2364 10.5526 10.1199 10.7871 9.9287 10.951L10.4167 11.5205L10.9048 12.0899C11.4049 11.6613 11.7095 11.0479 11.7487 10.3904L11 10.3458ZM10.4167 11.5205L9.9287 10.951C9.73749 11.1148 9.48792 11.194 9.23722 11.1703L9.16667 11.917L9.09611 12.6637C9.75187 12.7256 10.4047 12.5186 10.9048 12.0899L10.4167 11.5205ZM9.16667 11.917L9.23722 12.6637C9.48792 12.64 9.73749 12.7191 9.9287 12.883L10.4167 12.3135L10.9048 11.744C10.4047 11.3154 9.75187 11.1084 9.09612 11.1703L9.16667 11.917ZM10.4167 12.3135L9.9287 12.883C10.1199 13.0469 10.2364 13.2814 10.2513 13.5328L11 13.4882L11.7487 13.4436C11.7095 12.7861 11.4049 12.1727 10.9048 11.744L10.4167 12.3135ZM11 13.4882H10.25C10.25 13.6335 10.1983 13.7125 10.1158 13.7753C10.0125 13.8541 9.8373 13.9165 9.625 13.9165C9.4127 13.9165 9.23751 13.8541 9.13417 13.7753C9.05169 13.7125 9 13.6335 9 13.4882H8.25H7.5C7.5 14.1284 7.79206 14.6386 8.2252 14.9685C8.63749 15.2826 9.1498 15.4165 9.625 15.4165C10.1002 15.4165 10.6125 15.2826 11.0248 14.9685C11.4579 14.6386 11.75 14.1284 11.75 13.4882H11ZM12.8333 9.95258L13.3214 10.5221L14.238 9.73648L13.75 9.16699L13.262 8.59751L12.3453 9.38309L12.8333 9.95258ZM13.75 9.16699H13V14.667H13.75H14.5V9.16699H13.75Z" fill="#808080"/>
</svg>
